<?xml version="1.0" standalone="no"?>
<!DOCTYPE svg PUBLIC "-//W3C//DTD SVG 20010904//EN"
 "http://www.w3.org/TR/2001/REC-SVG-20010904/DTD/svg10.dtd">
<svg version="1.0" xmlns="http://www.w3.org/2000/svg"
 width="3717.000000pt" height="1200.000000pt" viewBox="0 0 3717.000000 1200.000000"
 preserveAspectRatio="xMidYMid meet">

<g transform="translate(0.000000,1200.000000) scale(0.100000,-0.100000)"
fill="#000000" stroke="none">
<path d="M21896 10294 c-200 -39 -367 -134 -481 -271 -70 -85 -159 -262 -185
-368 -10 -44 -24 -124 -30 -177 -6 -64 -10 -873 -10 -2388 l0 -2290 765 0 765
0 2 1588 3 1589 1720 -1544 c946 -849 1747 -1561 1780 -1583 84 -55 156 -86
260 -112 75 -19 115 -22 245 -22 134 1 169 5 254 27 242 64 402 188 515 398
52 96 88 192 114 304 l21 90 3 2348 3 2347 -765 0 -765 0 0 -1590 c0 -874 -3
-1590 -7 -1590 -5 0 -771 685 -1705 1523 -933 837 -1719 1539 -1747 1560 -110
81 -228 133 -364 162 -85 19 -297 18 -391 -1z"/>
<path d="M14087 9534 c-291 -384 -531 -703 -534 -711 -4 -11 313 -13 1893 -13
2059 0 1981 2 2204 -55 212 -54 442 -157 603 -272 114 -82 262 -231 332 -336
121 -183 183 -376 192 -597 12 -277 -48 -499 -192 -715 -195 -293 -548 -515
-945 -594 -220 -43 -228 -44 -1337 -48 l-1073 -4 0 995 0 996 -845 0 -845 0 0
-1690 0 -1690 1903 0 c1904 0 2042 2 2302 36 809 106 1567 480 2030 1004 342
386 549 809 636 1295 27 151 38 535 20 707 -54 524 -288 1021 -666 1417 -90
94 -267 245 -395 337 -386 278 -891 478 -1433 569 -351 58 -339 58 -1892 62
l-1430 4 -528 -697z"/>
<path d="M30585 10223 c-369 -9 -721 -62 -994 -149 -694 -219 -1072 -645
-1152 -1297 -17 -140 -6 -464 19 -588 57 -271 173 -498 345 -672 232 -236 585
-406 997 -481 273 -50 218 -49 2080 -56 1582 -5 1751 -8 1806 -23 153 -41 235
-102 276 -205 32 -82 32 -242 -1 -324 -56 -143 -182 -208 -443 -228 -72 -6
-966 -10 -2168 -10 l-2045 0 -485 -627 c-267 -345 -509 -658 -538 -695 l-54
-68 2719 3 c2961 3 2782 0 3121 57 505 86 937 297 1175 574 122 142 206 291
267 475 70 209 100 410 100 665 0 272 -42 475 -139 671 -71 142 -130 223 -241
329 -287 274 -729 432 -1335 476 -86 6 -761 10 -1760 10 -1742 0 -1723 0
-1875 51 -80 28 -148 89 -181 162 -20 45 -24 68 -24 167 0 99 4 122 24 168 30
66 92 122 167 151 138 53 73 51 2183 51 l1957 0 534 699 c294 384 536 704 538
710 3 8 -634 10 -2385 9 -1313 -1 -2433 -3 -2488 -5z"/>
<path d="M3616 10210 c-43 -13 -94 -51 -120 -90 -20 -29 -1187 -2047 -1225
-2117 -10 -20 50 -133 615 -1160 345 -626 627 -1143 627 -1149 0 -5 -286 -517
-637 -1137 -579 -1025 -636 -1129 -625 -1149 53 -98 1236 -2140 1255 -2164 25
-34 123 -89 135 -77 28 29 1354 2392 1864 3323 342 624 629 1149 639 1167 l16
32 -625 1142 c-344 628 -624 1143 -622 1145 2 2 569 5 1260 6 l1256 3 623
-1135 c343 -624 623 -1144 623 -1155 0 -11 -278 -527 -619 -1147 l-618 -1128
-738 0 -738 0 -636 -1124 c-350 -619 -636 -1127 -636 -1130 0 -3 901 -6 2003
-6 l2002 0 50 24 c28 13 62 36 76 52 26 29 2485 4282 2520 4359 22 47 24 125
5 175 -18 48 -2502 4349 -2529 4377 -11 13 -43 34 -71 48 l-50 25 -2525 -1
c-1390 0 -2539 -5 -2555 -9z"/>
<path d="M30600 2993 c-71 -5 -160 -22 -230 -45 -468 -150 -732 -652 -606
-1148 47 -186 125 -319 265 -452 329 -314 881 -328 1233 -33 103 86 171 173
233 300 77 158 99 254 99 435 0 162 -18 261 -74 392 -69 162 -219 337 -361
421 -157 92 -379 144 -559 130z m235 -260 c224 -56 408 -245 476 -489 30 -107
31 -285 1 -396 -62 -231 -216 -398 -437 -474 -69 -24 -96 -28 -200 -28 -138
-1 -224 20 -332 80 -329 183 -448 646 -256 993 44 80 154 196 227 240 154 92
341 119 521 74z"/>
<path d="M28338 2980 c-180 -31 -355 -145 -422 -277 -96 -191 -67 -422 71
-555 103 -99 207 -145 485 -213 210 -51 294 -82 359 -129 53 -39 81 -91 87
-161 17 -203 -178 -329 -461 -297 -171 19 -319 85 -464 208 -28 24 -53 44 -55
44 -5 0 -141 -159 -151 -177 -9 -15 113 -115 205 -169 213 -124 497 -175 726
-129 159 32 322 138 389 253 111 189 85 444 -60 585 -95 93 -223 148 -501 216
-334 82 -428 149 -429 306 -1 141 98 237 275 265 170 27 380 -36 549 -164 l45
-35 68 90 c37 50 69 95 71 102 10 27 -200 156 -323 198 -122 42 -337 60 -464
39z"/>
<path d="M13540 2045 l0 -915 340 0 c188 0 384 5 437 11 346 38 623 230 759
525 59 126 79 228 78 394 -1 171 -20 254 -88 395 -123 258 -361 432 -669 490
-62 12 -163 15 -468 15 l-389 0 0 -915z m865 681 c260 -73 448 -268 501 -516
24 -113 15 -290 -20 -396 -49 -153 -163 -292 -303 -370 -143 -80 -284 -104
-625 -104 l-188 0 0 706 0 706 288 -4 c231 -4 299 -8 347 -22z"/>
<path d="M15810 2045 l0 -915 675 0 675 0 0 120 0 120 -550 0 -550 0 0 285 0
285 485 0 485 0 0 115 0 115 -482 2 -483 3 -3 278 -2 277 545 0 545 0 0 115 0
115 -670 0 -670 0 0 -915z"/>
<path d="M17790 2045 l0 -915 675 0 675 0 0 120 0 120 -550 0 -550 0 0 285 0
285 490 0 490 0 0 115 0 115 -487 2 -488 3 -3 278 -2 277 545 0 545 0 0 115 0
115 -670 0 -670 0 0 -915z"/>
<path d="M19770 2046 l0 -916 130 0 130 0 0 314 0 314 283 4 c249 4 291 8 362
27 240 65 400 209 461 416 21 74 24 237 5 315 -49 201 -201 349 -426 416 -53
15 -115 18 -502 21 l-443 4 0 -915z m853 660 c121 -33 199 -92 244 -184 25
-50 28 -68 28 -152 0 -83 -3 -102 -27 -151 -51 -103 -140 -170 -273 -204 -45
-11 -118 -15 -312 -15 l-253 0 0 366 0 367 268 -6 c200 -4 282 -9 325 -21z"/>
<path d="M21750 2045 l0 -915 125 0 125 0 2 700 3 700 550 -700 550 -699 103
-1 102 0 0 915 0 915 -125 0 -125 0 0 -682 c0 -625 -1 -681 -16 -666 -9 8
-251 314 -538 679 l-522 664 -117 3 -117 3 0 -916z"/>
<path d="M24030 2045 l0 -915 680 0 680 0 0 120 0 120 -550 0 -550 0 0 285 0
285 485 0 485 0 0 115 0 115 -485 0 -485 0 0 280 0 280 540 0 540 0 0 115 0
115 -670 0 -670 0 0 -915z"/>
<path d="M25890 2845 l0 -115 298 -2 297 -3 3 -797 2 -798 125 0 125 0 2 798
3 797 298 3 297 2 0 115 0 115 -725 0 -725 0 0 -115z"/>
<path d="M32250 2045 l0 -915 125 0 125 0 2 387 3 388 483 3 482 2 0 115 0
115 -482 2 -483 3 0 290 0 290 538 3 537 2 0 115 0 115 -665 0 -665 0 0 -915z"/>
<path d="M34070 2845 l0 -115 295 0 295 0 0 -800 0 -800 130 0 130 0 0 800 0
800 300 0 300 0 0 115 0 115 -725 0 -725 0 0 -115z"/>
</g>
</svg>
